<?xml version='1.0' encoding='UTF-8'?>
<svg xmlns="http://www.w3.org/2000/svg" xmlns:xlink="http://www.w3.org/1999/xlink" width="2699pt" height="533pt" viewBox="0.00 0.00 2698.75 533.00">
<g id="graph0" class="graph" transform="scale(1 1) rotate(0) translate(4 529)">
<title>imported_1728943120.2553587</title>
<polygon fill="white" stroke="none" points="-4,4 -4,-529 2694.75,-529 2694.75,4 -4,4"/>
<!-- 1578140856272 -->
<g id="node1" class="node">
<title>1578140856272</title>
<polygon fill="black" stroke="black" points="707.88,-525 653.88,-525 653.88,-489 707.88,-489 707.88,-525"/>
</g>
<!-- 1578140847440 -->
<g id="node39" class="node">
<title>1578140847440</title>
<ellipse fill="white" stroke="black" cx="2457" cy="-247" rx="27" ry="27"/>
<ellipse fill="none" stroke="black" cx="2457" cy="-247" rx="31" ry="31"/>
<rect fill="black" x="2441.5" y="-262.5" width="32.0" height="32.0"/></g>
<!-- 1578140856272&#45;&gt;1578140847440 -->
<g id="edge22" class="edge">
<title>1578140856272-&gt;1578140847440</title>
<path fill="none" stroke="black" d="M708.08,-507.74C774.43,-509.53 954.43,-514 1104.5,-514 1104.5,-514 1104.5,-514 1333.25,-514 1701.75,-514 1800.14,-552.93 2161.75,-482 2267.67,-461.22 2311.39,-472.97 2390,-399 2421.34,-369.51 2438.59,-322.58 2447.52,-288.67"/>
<polygon fill="black" stroke="black" points="2450.86,-289.73 2449.87,-279.18 2444.07,-288.04 2450.86,-289.73"/>
</g>
<!-- 1578140856272guard -->
<g id="node2" class="node">
<title>1578140856272guard</title>
<polygon fill="none" stroke="black" stroke-dasharray="1,5" points="614,-525 195.25,-525 195.25,-489 614,-489 614,-525"/>
<text text-anchor="middle" x="404.62" y="-501.57" font-family="Arial Narrow,sans-serif" font-size="14.00">((dismissal!="NIL")||((points==0)&amp;&amp;(totalPaymentAmount&gt;=amount)))</text>
</g>
<!-- 1578140856272guard&#45;&gt;1578140856272 -->
<g id="edge1" class="edge">
<title>1578140856272guard-&gt;1578140856272</title>
<path fill="none" stroke="black" stroke-dasharray="1,5" d="M614.19,-507C629.28,-507 642.78,-507 653.55,-507"/>
</g>
<!-- 1578140853776 -->
<g id="node3" class="node">
<title>1578140853776</title>
<polygon fill="white" stroke="black" points="708.38,-456 653.38,-456 653.38,-420 708.38,-420 708.38,-456"/>
<text text-anchor="middle" x="680.88" y="-433.73" font-family="Arial Narrow,sans-serif" font-size="12.00">Payment</text>
</g>
<!-- 1578140858320 -->
<g id="node38" class="node">
<title>1578140858320</title>
<ellipse fill="white" stroke="black" cx="404.62" cy="-438" rx="27" ry="27"/>
</g>
<!-- 1578140853776&#45;&gt;1578140858320 -->
<g id="edge32" class="edge">
<title>1578140853776-&gt;1578140858320</title>
<path fill="none" stroke="black" d="M653.14,-442.21C603.87,-445.39 498.68,-445.58 442.61,-442.79"/>
<polygon fill="black" stroke="black" points="443.12,-439.31 432.94,-442.23 442.72,-446.3 443.12,-439.31"/>
</g>
<!-- 1578140847888 -->
<g id="node4" class="node">
<title>1578140847888</title>
<polygon fill="white" stroke="black" points="1616.88,-248 1545.38,-248 1545.38,-212 1616.88,-212 1616.88,-248"/>
<text text-anchor="middle" x="1581.12" y="-225.72" font-family="Arial Narrow,sans-serif" font-size="12.00">Add penalty</text>
</g>
<!-- 1578140855760 -->
<g id="node33" class="node">
<title>1578140855760</title>
<ellipse fill="white" stroke="black" cx="1332.25" cy="-284" rx="27" ry="27"/>
</g>
<!-- 1578140847888&#45;&gt;1578140855760 -->
<g id="edge30" class="edge">
<title>1578140847888-&gt;1578140855760</title>
<path fill="none" stroke="black" d="M1545.21,-242.51C1499.15,-255.04 1418.39,-272.75 1370.97,-280.77"/>
<polygon fill="black" stroke="black" points="1370.48,-277.3 1361.16,-282.35 1371.59,-284.21 1370.48,-277.3"/>
</g>
<!-- 1578140852112 -->
<g id="node5" class="node">
<title>1578140852112</title>
<polygon fill="white" stroke="black" points="2390,-36 2197.75,-36 2197.75,0 2390,0 2390,-36"/>
<text text-anchor="middle" x="2293.88" y="-13.72" font-family="Arial Narrow,sans-serif" font-size="12.00">Receive Result Appeal from Prefecture</text>
</g>
<!-- 1578140848784 -->
<g id="node37" class="node">
<title>1578140848784</title>
<ellipse fill="white" stroke="black" cx="2457" cy="-104" rx="27" ry="27"/>
</g>
<!-- 1578140852112&#45;&gt;1578140848784 -->
<g id="edge27" class="edge">
<title>1578140852112-&gt;1578140848784</title>
<path fill="none" stroke="black" d="M2360.18,-36.46C2370.43,-40.35 2380.7,-44.86 2390,-50 2403.7,-57.58 2417.34,-68.1 2428.64,-77.86"/>
<polygon fill="black" stroke="black" points="2426.22,-80.39 2436.02,-84.43 2430.88,-75.17 2426.22,-80.39"/>
</g>
<!-- 1578140852112guard -->
<g id="node6" class="node">
<title>1578140852112guard</title>
<polygon fill="none" stroke="black" stroke-dasharray="1,5" points="2161.75,-36 2034.75,-36 2034.75,0 2161.75,0 2161.75,-36"/>
<text text-anchor="middle" x="2098.25" y="-12.57" font-family="Arial Narrow,sans-serif" font-size="14.00">(dismissal=="NIL")</text>
</g>
<!-- 1578140852112guard&#45;&gt;1578140852112 -->
<g id="edge2" class="edge">
<title>1578140852112guard-&gt;1578140852112</title>
<path fill="none" stroke="black" stroke-dasharray="1,5" d="M2162.11,-18C2173.38,-18 2185.34,-18 2197.28,-18"/>
</g>
<!-- 1578140859408 -->
<g id="node7" class="node">
<title>1578140859408</title>
<polygon fill="black" stroke="black" points="1608.12,-486 1554.12,-486 1554.12,-450 1608.12,-450 1608.12,-486"/>
</g>
<!-- 1578140859408&#45;&gt;1578140847440 -->
<g id="edge17" class="edge">
<title>1578140859408-&gt;1578140847440</title>
<path fill="none" stroke="black" d="M1608.26,-468C1666.12,-468 1809.4,-468 1929.38,-468 1929.38,-468 1929.38,-468 2099.25,-468 2240.91,-468 2373.18,-340.51 2428.61,-279.19"/>
<polygon fill="black" stroke="black" points="2431.17,-281.58 2435.21,-271.78 2425.95,-276.92 2431.17,-281.58"/>
</g>
<!-- 1578140859408guard -->
<g id="node8" class="node">
<title>1578140859408guard</title>
<polygon fill="none" stroke="black" stroke-dasharray="1,5" points="1463.25,-486 1201.25,-486 1201.25,-450 1463.25,-450 1463.25,-486"/>
<text text-anchor="middle" x="1332.25" y="-462.57" font-family="Arial Narrow,sans-serif" font-size="14.00">(totalPaymentAmount&gt;=(amount+expense))</text>
</g>
<!-- 1578140859408guard&#45;&gt;1578140859408 -->
<g id="edge3" class="edge">
<title>1578140859408guard-&gt;1578140859408</title>
<path fill="none" stroke="black" stroke-dasharray="1,5" d="M1463.56,-468C1497.87,-468 1531.47,-468 1553.71,-468"/>
</g>
<!-- 1578140857232 -->
<g id="node9" class="node">
<title>1578140857232</title>
<polygon fill="white" stroke="black" points="1648.75,-193 1513.5,-193 1513.5,-157 1648.75,-157 1648.75,-193"/>
<text text-anchor="middle" x="1581.12" y="-170.72" font-family="Arial Narrow,sans-serif" font-size="12.00">Send for Credit Collection</text>
</g>
<!-- 1578140857232&#45;&gt;1578140847440 -->
<g id="edge21" class="edge">
<title>1578140857232-&gt;1578140847440</title>
<path fill="none" stroke="black" d="M1649.16,-179.73C1698.17,-183.25 1766.22,-188.23 1826,-193 2048.1,-210.71 2314.03,-234.28 2414.68,-243.29"/>
<polygon fill="black" stroke="black" points="2414.07,-246.75 2424.34,-244.15 2414.69,-239.77 2414.07,-246.75"/>
</g>
<!-- 1578140857232guard -->
<g id="node10" class="node">
<title>1578140857232guard</title>
<polygon fill="none" stroke="black" stroke-dasharray="1,5" points="1459.12,-193 1205.38,-193 1205.38,-157 1459.12,-157 1459.12,-193"/>
<text text-anchor="middle" x="1332.25" y="-169.57" font-family="Arial Narrow,sans-serif" font-size="14.00">(totalPaymentAmount&lt;(amount+expense))</text>
</g>
<!-- 1578140857232guard&#45;&gt;1578140857232 -->
<g id="edge4" class="edge">
<title>1578140857232guard-&gt;1578140857232</title>
<path fill="none" stroke="black" stroke-dasharray="1,5" d="M1459.58,-175C1478.09,-175 1496.51,-175 1513.17,-175"/>
</g>
<!-- 1578140848208 -->
<g id="node11" class="node">
<title>1578140848208</title>
<polygon fill="white" stroke="black" points="1133,-356 1078,-356 1078,-320 1133,-320 1133,-356"/>
<text text-anchor="middle" x="1105.5" y="-333.73" font-family="Arial Narrow,sans-serif" font-size="12.00">Payment</text>
</g>
<!-- 1578140845200 -->
<g id="node32" class="node">
<title>1578140845200</title>
<ellipse fill="white" stroke="black" cx="878.75" cy="-338" rx="27" ry="27"/>
</g>
<!-- 1578140848208&#45;&gt;1578140845200 -->
<g id="edge29" class="edge">
<title>1578140848208-&gt;1578140845200</title>
<path fill="none" stroke="black" d="M1077.63,-342.57C1037.6,-345.26 962.18,-345.46 916.9,-343.17"/>
<polygon fill="black" stroke="black" points="917.23,-339.68 907.04,-342.58 916.82,-346.67 917.23,-339.68"/>
</g>
<!-- 1578140857680 -->
<g id="node12" class="node">
<title>1578140857680</title>
<polygon fill="black" stroke="black" points="2320.88,-200 2266.88,-200 2266.88,-164 2320.88,-164 2320.88,-200"/>
</g>
<!-- 1578140857680&#45;&gt;1578140847440 -->
<g id="edge34" class="edge">
<title>1578140857680-&gt;1578140847440</title>
<path fill="none" stroke="black" d="M2321.07,-189.73C2340.39,-195.69 2367.15,-204.5 2390,-214 2399.54,-217.97 2409.62,-222.71 2418.95,-227.35"/>
<polygon fill="black" stroke="black" points="2417.25,-230.41 2427.75,-231.8 2420.41,-224.16 2417.25,-230.41"/>
</g>
<!-- 1578140857680guard -->
<g id="node13" class="node">
<title>1578140857680guard</title>
<polygon fill="none" stroke="black" stroke-dasharray="1,5" points="2155.75,-200 2040.75,-200 2040.75,-164 2155.75,-164 2155.75,-200"/>
<text text-anchor="middle" x="2098.25" y="-176.57" font-family="Arial Narrow,sans-serif" font-size="14.00">(dismissal=="G")</text>
</g>
<!-- 1578140857680guard&#45;&gt;1578140857680 -->
<g id="edge5" class="edge">
<title>1578140857680guard-&gt;1578140857680</title>
<path fill="none" stroke="black" stroke-dasharray="1,5" d="M2156.04,-182C2192.52,-182 2238.22,-182 2266.48,-182"/>
</g>
<!-- 1578140845520 -->
<g id="node14" class="node">
<title>1578140845520</title>
<polygon fill="white" stroke="black" points="1998.75,-137 1862,-137 1862,-101 1998.75,-101 1998.75,-137"/>
<text text-anchor="middle" x="1930.38" y="-114.72" font-family="Arial Narrow,sans-serif" font-size="12.00">Send Appeal to Prefecture</text>
</g>
<!-- 1578140850448 -->
<g id="node36" class="node">
<title>1578140850448</title>
<ellipse fill="white" stroke="black" cx="2098.25" cy="-119" rx="27" ry="27"/>
</g>
<!-- 1578140845520&#45;&gt;1578140850448 -->
<g id="edge26" class="edge">
<title>1578140845520-&gt;1578140850448</title>
<path fill="none" stroke="black" d="M1998.84,-119C2019.49,-119 2041.47,-119 2059.4,-119"/>
<polygon fill="black" stroke="black" points="2059.32,-122.5 2069.32,-119 2059.32,-115.5 2059.32,-122.5"/>
</g>
<!-- 1578140850768 -->
<g id="node15" class="node">
<title>1578140850768</title>
<polygon fill="white" stroke="black" points="2690.75,-342 2524,-342 2524,-306 2690.75,-306 2690.75,-342"/>
<text text-anchor="middle" x="2607.38" y="-319.73" font-family="Arial Narrow,sans-serif" font-size="12.00">Notify Result Appeal to Offender</text>
</g>
<!-- 1578140850768&#45;&gt;1578140855760 -->
<g id="edge28" class="edge">
<title>1578140850768-&gt;1578140855760</title>
<path fill="none" stroke="black" d="M2554.85,-342.43C2414.22,-389.9 2013.28,-506.16 1699,-411 1680.6,-405.43 1680.35,-395.28 1663,-387 1635.92,-374.07 1449.61,-318.39 1369.61,-294.72"/>
<polygon fill="black" stroke="black" points="1370.65,-291.38 1360.06,-291.9 1368.66,-298.09 1370.65,-291.38"/>
</g>
<!-- 1578140844880 -->
<g id="node16" class="node">
<title>1578140844880</title>
<polygon fill="black" stroke="black" points="1132.5,-165 1078.5,-165 1078.5,-129 1132.5,-129 1132.5,-165"/>
</g>
<!-- 1578140844880&#45;&gt;1578140847440 -->
<g id="edge31" class="edge">
<title>1578140844880-&gt;1578140847440</title>
<path fill="none" stroke="black" d="M1131.62,-128.57C1149.94,-116.18 1175.91,-100.76 1201.25,-93 1362.73,-43.54 1411.24,-64 1580.12,-64 1580.12,-64 1580.12,-64 2099.25,-64 2155.52,-64 2250,-53.56 2390,-155 2409.56,-169.18 2425.56,-190.95 2436.9,-209.75"/>
<polygon fill="black" stroke="black" points="2433.76,-211.32 2441.8,-218.23 2439.82,-207.82 2433.76,-211.32"/>
</g>
<!-- 1578140844880guard -->
<g id="node17" class="node">
<title>1578140844880guard</title>
<polygon fill="none" stroke="black" stroke-dasharray="1,5" points="1009.75,-165 747.75,-165 747.75,-129 1009.75,-129 1009.75,-165"/>
<text text-anchor="middle" x="878.75" y="-141.57" font-family="Arial Narrow,sans-serif" font-size="14.00">(totalPaymentAmount&gt;=(amount+expense))</text>
</g>
<!-- 1578140844880guard&#45;&gt;1578140844880 -->
<g id="edge6" class="edge">
<title>1578140844880guard-&gt;1578140844880</title>
<path fill="none" stroke="black" stroke-dasharray="1,5" d="M1010.16,-147C1036.11,-147 1060.74,-147 1078.32,-147"/>
</g>
<!-- 1578140851024 -->
<g id="node18" class="node">
<title>1578140851024</title>
<polygon fill="white" stroke="black" points="1608.62,-302 1553.62,-302 1553.62,-266 1608.62,-266 1608.62,-302"/>
<text text-anchor="middle" x="1581.12" y="-279.73" font-family="Arial Narrow,sans-serif" font-size="12.00">Payment</text>
</g>
<!-- 1578140851024&#45;&gt;1578140855760 -->
<g id="edge33" class="edge">
<title>1578140851024-&gt;1578140855760</title>
<path fill="none" stroke="black" d="M1553.4,-288.39C1509.22,-291.32 1420.83,-291.52 1370.52,-289"/>
<polygon fill="black" stroke="black" points="1370.9,-285.51 1360.71,-288.43 1370.49,-292.5 1370.9,-285.51"/>
</g>
<!-- 1578140852944 -->
<g id="node19" class="node">
<title>1578140852944</title>
<polygon fill="white" stroke="black" points="159.25,-456 90,-456 90,-420 159.25,-420 159.25,-456"/>
<text text-anchor="middle" x="124.62" y="-433.73" font-family="Arial Narrow,sans-serif" font-size="12.00">Create Fine</text>
</g>
<!-- 1578140852944&#45;&gt;1578140858320 -->
<g id="edge13" class="edge">
<title>1578140852944-&gt;1578140858320</title>
<path fill="none" stroke="black" d="M159.71,-438C211.99,-438 311.59,-438 365.95,-438"/>
<polygon fill="black" stroke="black" points="365.63,-441.5 375.63,-438 365.63,-434.5 365.63,-441.5"/>
</g>
<!-- 1578140847568 -->
<g id="node20" class="node">
<title>1578140847568</title>
<polygon fill="white" stroke="black" points="1663,-138 1499.25,-138 1499.25,-102 1663,-102 1663,-138"/>
<text text-anchor="middle" x="1581.12" y="-115.72" font-family="Arial Narrow,sans-serif" font-size="12.00">Insert Date Appeal to Prefecture</text>
</g>
<!-- 1578140859024 -->
<g id="node35" class="node">
<title>1578140859024</title>
<ellipse fill="white" stroke="black" cx="1762.5" cy="-119" rx="27" ry="27"/>
</g>
<!-- 1578140847568&#45;&gt;1578140859024 -->
<g id="edge16" class="edge">
<title>1578140847568-&gt;1578140859024</title>
<path fill="none" stroke="black" d="M1663.42,-119.55C1684.5,-119.43 1706.22,-119.31 1723.84,-119.21"/>
<polygon fill="black" stroke="black" points="1723.83,-122.71 1733.81,-119.15 1723.79,-115.71 1723.83,-122.71"/>
</g>
<!-- 1578140847568guard -->
<g id="node21" class="node">
<title>1578140847568guard</title>
<polygon fill="none" stroke="black" stroke-dasharray="1,5" points="1407,-138 1257.5,-138 1257.5,-102 1407,-102 1407,-138"/>
<text text-anchor="middle" x="1332.25" y="-114.58" font-family="Arial Narrow,sans-serif" font-size="14.00">(delayPrefecture'&lt;1440)</text>
</g>
<!-- 1578140847568guard&#45;&gt;1578140847568 -->
<g id="edge7" class="edge">
<title>1578140847568guard-&gt;1578140847568</title>
<path fill="none" stroke="black" stroke-dasharray="1,5" d="M1407.32,-120C1436.15,-120 1469.29,-120 1498.78,-120"/>
</g>
<!-- 1578140851792 -->
<g id="node22" class="node">
<title>1578140851792</title>
<polygon fill="white" stroke="black" points="1165.25,-302 1045.75,-302 1045.75,-266 1165.25,-266 1165.25,-302"/>
<text text-anchor="middle" x="1105.5" y="-279.73" font-family="Arial Narrow,sans-serif" font-size="12.00">Insert Fine Notification</text>
</g>
<!-- 1578140851792&#45;&gt;1578140855760 -->
<g id="edge15" class="edge">
<title>1578140851792-&gt;1578140855760</title>
<path fill="none" stroke="black" d="M1165.55,-284C1206.1,-284 1258.7,-284 1293.65,-284"/>
<polygon fill="black" stroke="black" points="1293.26,-287.5 1303.26,-284 1293.26,-280.5 1293.26,-287.5"/>
</g>
<!-- 1578140850640 -->
<g id="node23" class="node">
<title>1578140850640</title>
<polygon fill="white" stroke="black" points="711.75,-381 650,-381 650,-345 711.75,-345 711.75,-381"/>
<text text-anchor="middle" x="680.88" y="-358.73" font-family="Arial Narrow,sans-serif" font-size="12.00">Send Fine</text>
</g>
<!-- 1578140850640&#45;&gt;1578140845200 -->
<g id="edge14" class="edge">
<title>1578140850640-&gt;1578140845200</title>
<path fill="none" stroke="black" d="M712.05,-359.15C746.52,-354.75 802.97,-347.54 840.24,-342.79"/>
<polygon fill="black" stroke="black" points="840.64,-346.27 850.11,-341.53 839.75,-339.32 840.64,-346.27"/>
</g>
<!-- 1578140850640guard -->
<g id="node24" class="node">
<title>1578140850640guard</title>
<polygon fill="none" stroke="black" stroke-dasharray="1,5" points="465.12,-381 344.12,-381 344.12,-345 465.12,-345 465.12,-381"/>
<text text-anchor="middle" x="404.62" y="-357.57" font-family="Arial Narrow,sans-serif" font-size="14.00">(delaySend'&lt;2160)</text>
</g>
<!-- 1578140850640guard&#45;&gt;1578140850640 -->
<g id="edge8" class="edge">
<title>1578140850640guard-&gt;1578140850640</title>
<path fill="none" stroke="black" stroke-dasharray="1,5" d="M465.47,-363C522.37,-363 605.62,-363 649.78,-363"/>
</g>
<!-- 1578140847952 -->
<g id="node25" class="node">
<title>1578140847952</title>
<polygon fill="black" stroke="black" points="1957.38,-356 1903.38,-356 1903.38,-320 1957.38,-320 1957.38,-356"/>
</g>
<!-- 1578140847952&#45;&gt;1578140855760 -->
<g id="edge18" class="edge">
<title>1578140847952-&gt;1578140855760</title>
<path fill="none" stroke="black" d="M1903.11,-337.25C1835.8,-335.14 1651.67,-328.14 1499.25,-311 1454.61,-305.98 1403.66,-297.24 1370.12,-291.07"/>
<polygon fill="black" stroke="black" points="1370.98,-287.67 1360.51,-289.28 1369.7,-294.55 1370.98,-287.67"/>
</g>
<!-- 1578140847952guard -->
<g id="node26" class="node">
<title>1578140847952guard</title>
<polygon fill="none" stroke="black" stroke-dasharray="1,5" points="1826,-402 1699,-402 1699,-366 1826,-366 1826,-402"/>
<text text-anchor="middle" x="1762.5" y="-378.57" font-family="Arial Narrow,sans-serif" font-size="14.00">(dismissal=="NIL")</text>
</g>
<!-- 1578140847952guard&#45;&gt;1578140847952 -->
<g id="edge9" class="edge">
<title>1578140847952guard-&gt;1578140847952</title>
<path fill="none" stroke="black" stroke-dasharray="1,5" d="M1826.21,-366.61C1852.82,-359.23 1882.38,-351.03 1903.01,-345.31"/>
</g>
<!-- 1578140859088 -->
<g id="node27" class="node">
<title>1578140859088</title>
<polygon fill="black" stroke="black" points="1957.38,-284 1903.38,-284 1903.38,-248 1957.38,-248 1957.38,-284"/>
</g>
<!-- 1578140859088&#45;&gt;1578140847440 -->
<g id="edge19" class="edge">
<title>1578140859088-&gt;1578140847440</title>
<path fill="none" stroke="black" d="M1957.75,-265.04C2042.88,-261.96 2310.82,-252.26 2414.48,-248.5"/>
<polygon fill="black" stroke="black" points="2414.33,-252.01 2424.2,-248.15 2414.08,-245.02 2414.33,-252.01"/>
</g>
<!-- 1578140859088guard -->
<g id="node28" class="node">
<title>1578140859088guard</title>
<polygon fill="none" stroke="black" stroke-dasharray="1,5" points="1818.5,-238 1706.5,-238 1706.5,-202 1818.5,-202 1818.5,-238"/>
<text text-anchor="middle" x="1762.5" y="-214.57" font-family="Arial Narrow,sans-serif" font-size="14.00">(dismissal=="#")</text>
</g>
<!-- 1578140859088guard&#45;&gt;1578140859088 -->
<g id="edge10" class="edge">
<title>1578140859088guard-&gt;1578140859088</title>
<path fill="none" stroke="black" stroke-dasharray="1,5" d="M1818.73,-235.32C1847.2,-243.21 1880.58,-252.47 1903.17,-258.73"/>
</g>
<!-- 1578140846416 -->
<g id="node29" class="node">
<title>1578140846416</title>
<polygon fill="white" stroke="black" points="1626.25,-432 1536,-432 1536,-396 1626.25,-396 1626.25,-432"/>
<text text-anchor="middle" x="1581.12" y="-409.73" font-family="Arial Narrow,sans-serif" font-size="12.00">Appeal to Judge</text>
</g>
<!-- 1578140851856 -->
<g id="node34" class="node">
<title>1578140851856</title>
<ellipse fill="white" stroke="black" cx="1762.5" cy="-283" rx="27" ry="27"/>
</g>
<!-- 1578140846416&#45;&gt;1578140851856 -->
<g id="edge20" class="edge">
<title>1578140846416-&gt;1578140851856</title>
<path fill="none" stroke="black" d="M1607.44,-395.51C1639.84,-371.85 1695.92,-330.9 1730.74,-305.47"/>
<polygon fill="black" stroke="black" points="1732.72,-308.35 1738.74,-299.62 1728.6,-302.7 1732.72,-308.35"/>
</g>
<!-- 1578140846416guard -->
<g id="node30" class="node">
<title>1578140846416guard</title>
<polygon fill="none" stroke="black" stroke-dasharray="1,5" points="1394.62,-432 1269.88,-432 1269.88,-396 1394.62,-396 1394.62,-432"/>
<text text-anchor="middle" x="1332.25" y="-408.57" font-family="Arial Narrow,sans-serif" font-size="14.00">(delayJudge'&lt;1440)</text>
</g>
<!-- 1578140846416guard&#45;&gt;1578140846416 -->
<g id="edge11" class="edge">
<title>1578140846416guard-&gt;1578140846416</title>
<path fill="none" stroke="black" stroke-dasharray="1,5" d="M1394.91,-414C1438.61,-414 1496.23,-414 1535.53,-414"/>
</g>
<!-- 1578140855888 -->
<g id="node31" class="node">
<title>1578140855888</title>
<ellipse fill="white" stroke="black" cx="27" cy="-438" rx="27" ry="27"/>
<circle fill="black" cx="27" cy="-438" r="17.0"/></g>
<!-- 1578140855888&#45;&gt;1578140852944 -->
<g id="edge12" class="edge">
<title>1578140855888-&gt;1578140852944</title>
<path fill="none" stroke="black" d="M54.38,-438C61.82,-438 70.14,-438 78.35,-438"/>
<polygon fill="black" stroke="black" points="78.28,-441.5 88.28,-438 78.28,-434.5 78.28,-441.5"/>
</g>
<!-- 1578140845200&#45;&gt;1578140848208 -->
<g id="edge24" class="edge">
<title>1578140845200-&gt;1578140848208</title>
<path fill="none" stroke="black" d="M905.53,-333.51C944.99,-330.76 1020.59,-330.52 1066.39,-332.78"/>
<polygon fill="black" stroke="black" points="1065.93,-336.26 1076.12,-333.34 1066.33,-329.27 1065.93,-336.26"/>
</g>
<!-- 1578140845200&#45;&gt;1578140844880 -->
<g id="edge25" class="edge">
<title>1578140845200-&gt;1578140844880</title>
<path fill="none" stroke="black" d="M900.09,-320.71C939.8,-286.97 1027.82,-212.17 1074.33,-172.64"/>
<polygon fill="black" stroke="black" points="1076.55,-175.34 1081.9,-166.2 1072.02,-170.01 1076.55,-175.34"/>
</g>
<!-- 1578140845200&#45;&gt;1578140851792 -->
<g id="edge23" class="edge">
<title>1578140845200-&gt;1578140851792</title>
<path fill="none" stroke="black" d="M905.53,-331.81C936.72,-324.31 990.47,-311.4 1034.26,-300.88"/>
<polygon fill="black" stroke="black" points="1035.06,-304.28 1043.97,-298.54 1033.43,-297.48 1035.06,-304.28"/>
</g>
<!-- 1578140855760&#45;&gt;1578140847888 -->
<g id="edge39" class="edge">
<title>1578140855760-&gt;1578140847888</title>
<path fill="none" stroke="black" d="M1357.82,-274.38C1398.76,-262.54 1481.55,-244.04 1533.73,-234.74"/>
<polygon fill="black" stroke="black" points="1534.26,-238.2 1543.52,-233.05 1533.07,-231.3 1534.26,-238.2"/>
</g>
<!-- 1578140855760&#45;&gt;1578140859408 -->
<g id="edge36" class="edge">
<title>1578140855760-&gt;1578140859408</title>
<path fill="none" stroke="black" d="M1355.22,-298.23C1382.55,-316.6 1429.69,-350.57 1463.25,-387 1482.79,-408.22 1476.33,-423.49 1499.25,-441 1511.9,-450.67 1528.2,-456.98 1542.85,-461.05"/>
<polygon fill="black" stroke="black" points="1541.62,-464.35 1552.17,-463.37 1543.32,-457.56 1541.62,-464.35"/>
</g>
<!-- 1578140855760&#45;&gt;1578140857232 -->
<g id="edge38" class="edge">
<title>1578140855760-&gt;1578140857232</title>
<path fill="none" stroke="black" d="M1356.48,-271.56C1388.21,-254.81 1447.13,-224.65 1499.25,-203 1503.85,-201.09 1508.63,-199.2 1513.47,-197.36"/>
<polygon fill="black" stroke="black" points="1514.53,-200.7 1522.69,-193.93 1512.09,-194.13 1514.53,-200.7"/>
</g>
<!-- 1578140855760&#45;&gt;1578140851024 -->
<g id="edge40" class="edge">
<title>1578140855760-&gt;1578140851024</title>
<path fill="none" stroke="black" d="M1359.2,-279.66C1402.87,-276.7 1491.22,-276.47 1541.96,-278.96"/>
<polygon fill="black" stroke="black" points="1541.71,-282.45 1551.89,-279.52 1542.11,-275.46 1541.71,-282.45"/>
</g>
<!-- 1578140855760&#45;&gt;1578140847568 -->
<g id="edge35" class="edge">
<title>1578140855760-&gt;1578140847568</title>
<path fill="none" stroke="black" d="M1356.9,-272.93C1384.65,-259.13 1430.96,-233.48 1463.25,-202 1483.9,-181.86 1476.43,-165.64 1499.25,-148 1501.01,-146.64 1502.85,-145.34 1504.74,-144.1"/>
<polygon fill="black" stroke="black" points="1506.38,-147.19 1513.29,-139.16 1502.88,-141.13 1506.38,-147.19"/>
</g>
<!-- 1578140855760&#45;&gt;1578140846416 -->
<g id="edge37" class="edge">
<title>1578140855760-&gt;1578140846416</title>
<path fill="none" stroke="black" d="M1355.45,-298.63C1386.72,-318.88 1445.89,-355.89 1499.25,-382 1507.45,-386.01 1516.28,-389.91 1524.99,-393.53"/>
<polygon fill="black" stroke="black" points="1523.52,-396.71 1534.11,-397.22 1526.15,-390.22 1523.52,-396.71"/>
</g>
<!-- 1578140851856&#45;&gt;1578140847952 -->
<g id="edge41" class="edge">
<title>1578140851856-&gt;1578140847952</title>
<path fill="none" stroke="black" d="M1788.69,-291.35C1816.34,-300.52 1860.98,-315.32 1892.55,-325.79"/>
<polygon fill="black" stroke="black" points="1891.09,-328.99 1901.69,-328.82 1893.29,-322.35 1891.09,-328.99"/>
</g>
<!-- 1578140851856&#45;&gt;1578140859088 -->
<g id="edge42" class="edge">
<title>1578140851856-&gt;1578140859088</title>
<path fill="none" stroke="black" d="M1789.78,-280.31C1817.24,-277.49 1860.58,-273.05 1891.68,-269.86"/>
<polygon fill="black" stroke="black" points="1891.84,-273.36 1901.43,-268.86 1891.13,-266.4 1891.84,-273.36"/>
</g>
<!-- 1578140859024&#45;&gt;1578140845520 -->
<g id="edge43" class="edge">
<title>1578140859024-&gt;1578140845520</title>
<path fill="none" stroke="black" d="M1789.78,-119C1806.28,-119 1828.49,-119 1850.35,-119"/>
<polygon fill="black" stroke="black" points="1850.2,-122.5 1860.2,-119 1850.2,-115.5 1850.2,-122.5"/>
</g>
<!-- 1578140850448&#45;&gt;1578140852112 -->
<g id="edge44" class="edge">
<title>1578140850448-&gt;1578140852112</title>
<path fill="none" stroke="black" d="M2122.61,-106.82C2153.44,-90.73 2208.41,-62.06 2247.54,-41.65"/>
<polygon fill="black" stroke="black" points="2249.04,-44.81 2256.28,-37.09 2245.8,-38.61 2249.04,-44.81"/>
</g>
<!-- 1578140850448&#45;&gt;1578140857680 -->
<g id="edge45" class="edge">
<title>1578140850448-&gt;1578140857680</title>
<path fill="none" stroke="black" d="M2124.17,-127.11C2157.54,-137.97 2217.03,-157.32 2255.71,-169.91"/>
<polygon fill="black" stroke="black" points="2254.47,-173.19 2265.07,-172.95 2256.64,-166.53 2254.47,-173.19"/>
</g>
<!-- 1578140848784&#45;&gt;1578140850768 -->
<g id="edge46" class="edge">
<title>1578140848784-&gt;1578140850768</title>
<path fill="none" stroke="black" d="M2473.04,-126.31C2500.32,-166.74 2557.85,-252.04 2587.63,-296.2"/>
<polygon fill="black" stroke="black" points="2584.71,-298.14 2593.21,-304.48 2590.52,-294.23 2584.71,-298.14"/>
</g>
<!-- 1578140858320&#45;&gt;1578140856272 -->
<g id="edge48" class="edge">
<title>1578140858320-&gt;1578140856272</title>
<path fill="none" stroke="black" d="M431.68,-441.62C471.52,-447.52 549.72,-460.54 614,-480 623.61,-482.91 633.75,-486.69 643.12,-490.5"/>
<polygon fill="black" stroke="black" points="641.72,-493.7 652.29,-494.34 644.42,-487.25 641.72,-493.7"/>
</g>
<!-- 1578140858320&#45;&gt;1578140853776 -->
<g id="edge49" class="edge">
<title>1578140858320-&gt;1578140853776</title>
<path fill="none" stroke="black" d="M431.43,-433.85C479.98,-430.63 585.12,-430.4 641.81,-433.16"/>
<polygon fill="black" stroke="black" points="641.44,-436.64 651.62,-433.71 641.84,-429.65 641.44,-436.64"/>
</g>
<!-- 1578140858320&#45;&gt;1578140850640 -->
<g id="edge47" class="edge">
<title>1578140858320-&gt;1578140850640</title>
<path fill="none" stroke="black" d="M431.65,-433.42C471.45,-426.09 549.61,-410.46 614,-390 622.27,-387.37 630.96,-384.15 639.22,-380.87"/>
<polygon fill="black" stroke="black" points="640.43,-384.15 648.35,-377.12 637.77,-377.68 640.43,-384.15"/>
</g>
</g>
</svg>
