<?xml version='1.0' encoding='UTF-8'?>
<svg xmlns="http://www.w3.org/2000/svg" xmlns:xlink="http://www.w3.org/1999/xlink" width="2699pt" height="521pt" viewBox="0.00 0.00 2698.75 521.00">
<g id="graph0" class="graph" transform="scale(1 1) rotate(0) translate(4 517)">
<title>imported_1724257327.8100886</title>
<polygon fill="white" stroke="none" points="-4,4 -4,-517 2694.75,-517 2694.75,4 -4,4"/>
<!-- 2031265691008 -->
<g id="node1" class="node">
<title>2031265691008</title>
<polygon fill="black" stroke="black" points="1132.5,-478 1078.5,-478 1078.5,-442 1132.5,-442 1132.5,-478"/>
</g>
<!-- 2031265683856 -->
<g id="node39" class="node">
<title>2031265683856</title>
<ellipse fill="white" stroke="black" cx="2457" cy="-411" rx="27" ry="27"/>
<ellipse fill="none" stroke="black" cx="2457" cy="-411" rx="31" ry="31"/>
<rect fill="black" x="2441.5" y="-426.5" width="32.0" height="32.0"/></g>
<!-- 2031265691008&#45;&gt;2031265683856 -->
<g id="edge31" class="edge">
<title>2031265691008-&gt;2031265683856</title>
<path fill="none" stroke="black" d="M1132.94,-460.76C1204.8,-462.76 1409.69,-468 1580.12,-468 1580.12,-468 1580.12,-468 2099.25,-468 2229.25,-468 2263.6,-466.38 2390,-436 2399.15,-433.8 2408.74,-430.67 2417.7,-427.37"/>
<polygon fill="black" stroke="black" points="2418.75,-430.72 2426.82,-423.85 2416.23,-424.19 2418.75,-430.72"/>
</g>
<!-- 2031265691008guard -->
<g id="node2" class="node">
<title>2031265691008guard</title>
<polygon fill="none" stroke="black" stroke-dasharray="1,5" points="1009.75,-478 747.75,-478 747.75,-442 1009.75,-442 1009.75,-478"/>
<text text-anchor="middle" x="878.75" y="-454.57" font-family="Arial Narrow,sans-serif" font-size="14.00">(totalPaymentAmount&gt;=(amount+expense))</text>
</g>
<!-- 2031265691008guard&#45;&gt;2031265691008 -->
<g id="edge1" class="edge">
<title>2031265691008guard-&gt;2031265691008</title>
<path fill="none" stroke="black" stroke-dasharray="1,5" d="M1010.16,-460C1036.11,-460 1060.74,-460 1078.32,-460"/>
</g>
<!-- 2031265689232 -->
<g id="node3" class="node">
<title>2031265689232</title>
<polygon fill="white" stroke="black" points="1998.75,-87 1862,-87 1862,-51 1998.75,-51 1998.75,-87"/>
<text text-anchor="middle" x="1930.38" y="-64.72" font-family="Arial Narrow,sans-serif" font-size="12.00">Send Appeal to Prefecture</text>
</g>
<!-- 2031265686208 -->
<g id="node36" class="node">
<title>2031265686208</title>
<ellipse fill="white" stroke="black" cx="2098.25" cy="-81" rx="27" ry="27"/>
</g>
<!-- 2031265689232&#45;&gt;2031265686208 -->
<g id="edge26" class="edge">
<title>2031265689232-&gt;2031265686208</title>
<path fill="none" stroke="black" d="M1998.84,-73.88C2019.49,-75.37 2041.47,-76.96 2059.4,-78.26"/>
<polygon fill="black" stroke="black" points="2059.09,-81.75 2069.32,-78.98 2059.6,-74.77 2059.09,-81.75"/>
</g>
<!-- 2031265686928 -->
<g id="node4" class="node">
<title>2031265686928</title>
<polygon fill="white" stroke="black" points="159.25,-373 90,-373 90,-337 159.25,-337 159.25,-373"/>
<text text-anchor="middle" x="124.62" y="-350.73" font-family="Arial Narrow,sans-serif" font-size="12.00">Create Fine</text>
</g>
<!-- 2031265686832 -->
<g id="node38" class="node">
<title>2031265686832</title>
<ellipse fill="white" stroke="black" cx="404.62" cy="-355" rx="27" ry="27"/>
</g>
<!-- 2031265686928&#45;&gt;2031265686832 -->
<g id="edge13" class="edge">
<title>2031265686928-&gt;2031265686832</title>
<path fill="none" stroke="black" d="M159.71,-355C211.99,-355 311.59,-355 365.95,-355"/>
<polygon fill="black" stroke="black" points="365.63,-358.5 375.63,-355 365.63,-351.5 365.63,-358.5"/>
</g>
<!-- 2031265687312 -->
<g id="node5" class="node">
<title>2031265687312</title>
<polygon fill="black" stroke="black" points="1608.12,-370 1554.12,-370 1554.12,-334 1608.12,-334 1608.12,-370"/>
</g>
<!-- 2031265687312&#45;&gt;2031265683856 -->
<g id="edge17" class="edge">
<title>2031265687312-&gt;2031265683856</title>
<path fill="none" stroke="black" d="M1608.47,-357.48C1632.09,-362.21 1667.72,-368.91 1699,-373 1800.87,-386.32 1826.64,-392 1929.38,-392 1929.38,-392 1929.38,-392 2099.25,-392 2213.64,-392 2348.37,-401.86 2414.76,-407.37"/>
<polygon fill="black" stroke="black" points="2414.19,-410.84 2424.45,-408.19 2414.78,-403.86 2414.19,-410.84"/>
</g>
<!-- 2031265687312guard -->
<g id="node6" class="node">
<title>2031265687312guard</title>
<polygon fill="none" stroke="black" stroke-dasharray="1,5" points="1463.25,-370 1201.25,-370 1201.25,-334 1463.25,-334 1463.25,-370"/>
<text text-anchor="middle" x="1332.25" y="-346.57" font-family="Arial Narrow,sans-serif" font-size="14.00">(totalPaymentAmount&gt;=(amount+expense))</text>
</g>
<!-- 2031265687312guard&#45;&gt;2031265687312 -->
<g id="edge2" class="edge">
<title>2031265687312guard-&gt;2031265687312</title>
<path fill="none" stroke="black" stroke-dasharray="1,5" d="M1463.56,-352C1497.87,-352 1531.47,-352 1553.71,-352"/>
</g>
<!-- 2031265690912 -->
<g id="node7" class="node">
<title>2031265690912</title>
<polygon fill="white" stroke="black" points="1616.88,-162 1545.38,-162 1545.38,-126 1616.88,-126 1616.88,-162"/>
<text text-anchor="middle" x="1581.12" y="-139.72" font-family="Arial Narrow,sans-serif" font-size="12.00">Add penalty</text>
</g>
<!-- 2031265679200 -->
<g id="node33" class="node">
<title>2031265679200</title>
<ellipse fill="white" stroke="black" cx="1332.25" cy="-190" rx="27" ry="27"/>
</g>
<!-- 2031265690912&#45;&gt;2031265679200 -->
<g id="edge30" class="edge">
<title>2031265690912-&gt;2031265679200</title>
<path fill="none" stroke="black" d="M1545.21,-155.38C1499.15,-166.41 1418.39,-181.51 1370.97,-187.99"/>
<polygon fill="black" stroke="black" points="1370.64,-184.51 1361.17,-189.25 1371.54,-191.45 1370.64,-184.51"/>
</g>
<!-- 2031265691296 -->
<g id="node8" class="node">
<title>2031265691296</title>
<polygon fill="black" stroke="black" points="2320.88,-259 2266.88,-259 2266.88,-223 2320.88,-223 2320.88,-259"/>
</g>
<!-- 2031265691296&#45;&gt;2031265683856 -->
<g id="edge34" class="edge">
<title>2031265691296-&gt;2031265683856</title>
<path fill="none" stroke="black" d="M2313.83,-259.22C2333.29,-278.09 2364.28,-308.6 2390,-336 2403.05,-349.9 2417.06,-365.69 2428.8,-379.19"/>
<polygon fill="black" stroke="black" points="2425.97,-381.27 2435.17,-386.54 2431.27,-376.68 2425.97,-381.27"/>
</g>
<!-- 2031265691296guard -->
<g id="node9" class="node">
<title>2031265691296guard</title>
<polygon fill="none" stroke="black" stroke-dasharray="1,5" points="2155.75,-259 2040.75,-259 2040.75,-223 2155.75,-223 2155.75,-259"/>
<text text-anchor="middle" x="2098.25" y="-235.57" font-family="Arial Narrow,sans-serif" font-size="14.00">(dismissal=="G")</text>
</g>
<!-- 2031265691296guard&#45;&gt;2031265691296 -->
<g id="edge3" class="edge">
<title>2031265691296guard-&gt;2031265691296</title>
<path fill="none" stroke="black" stroke-dasharray="1,5" d="M2156.04,-241C2192.52,-241 2238.22,-241 2266.48,-241"/>
</g>
<!-- 2031265687216 -->
<g id="node10" class="node">
<title>2031265687216</title>
<polygon fill="white" stroke="black" points="1663,-54 1499.25,-54 1499.25,-18 1663,-18 1663,-54"/>
<text text-anchor="middle" x="1581.12" y="-31.73" font-family="Arial Narrow,sans-serif" font-size="12.00">Insert Date Appeal to Prefecture</text>
</g>
<!-- 2031265680016 -->
<g id="node35" class="node">
<title>2031265680016</title>
<ellipse fill="white" stroke="black" cx="1762.5" cy="-47" rx="27" ry="27"/>
</g>
<!-- 2031265687216&#45;&gt;2031265680016 -->
<g id="edge16" class="edge">
<title>2031265687216-&gt;2031265680016</title>
<path fill="none" stroke="black" d="M1663.42,-40.99C1684.5,-42.28 1706.22,-43.61 1723.84,-44.69"/>
<polygon fill="black" stroke="black" points="1723.62,-48.18 1733.81,-45.3 1724.04,-41.2 1723.62,-48.18"/>
</g>
<!-- 2031265687216guard -->
<g id="node11" class="node">
<title>2031265687216guard</title>
<polygon fill="none" stroke="black" stroke-dasharray="1,5" points="1407,-54 1257.5,-54 1257.5,-18 1407,-18 1407,-54"/>
<text text-anchor="middle" x="1332.25" y="-30.57" font-family="Arial Narrow,sans-serif" font-size="14.00">(delayPrefecture'&lt;1440)</text>
</g>
<!-- 2031265687216guard&#45;&gt;2031265687216 -->
<g id="edge4" class="edge">
<title>2031265687216guard-&gt;2031265687216</title>
<path fill="none" stroke="black" stroke-dasharray="1,5" d="M1407.32,-36C1436.15,-36 1469.29,-36 1498.78,-36"/>
</g>
<!-- 2031265687600 -->
<g id="node12" class="node">
<title>2031265687600</title>
<polygon fill="white" stroke="black" points="1626.25,-296 1536,-296 1536,-260 1626.25,-260 1626.25,-296"/>
<text text-anchor="middle" x="1581.12" y="-273.73" font-family="Arial Narrow,sans-serif" font-size="12.00">Appeal to Judge</text>
</g>
<!-- 2031265683616 -->
<g id="node34" class="node">
<title>2031265683616</title>
<ellipse fill="white" stroke="black" cx="1762.5" cy="-283" rx="27" ry="27"/>
</g>
<!-- 2031265687600&#45;&gt;2031265683616 -->
<g id="edge20" class="edge">
<title>2031265687600-&gt;2031265683616</title>
<path fill="none" stroke="black" d="M1626.46,-279.24C1656.33,-280.07 1695.3,-281.15 1723.7,-281.95"/>
<polygon fill="black" stroke="black" points="1723.55,-285.44 1733.65,-282.22 1723.75,-278.45 1723.55,-285.44"/>
</g>
<!-- 2031265687600guard -->
<g id="node13" class="node">
<title>2031265687600guard</title>
<polygon fill="none" stroke="black" stroke-dasharray="1,5" points="1394.62,-296 1269.88,-296 1269.88,-260 1394.62,-260 1394.62,-296"/>
<text text-anchor="middle" x="1332.25" y="-272.57" font-family="Arial Narrow,sans-serif" font-size="14.00">(delayJudge'&lt;1440)</text>
</g>
<!-- 2031265687600guard&#45;&gt;2031265687600 -->
<g id="edge5" class="edge">
<title>2031265687600guard-&gt;2031265687600</title>
<path fill="none" stroke="black" stroke-dasharray="1,5" d="M1394.91,-278C1438.61,-278 1496.23,-278 1535.53,-278"/>
</g>
<!-- 2031265689136 -->
<g id="node14" class="node">
<title>2031265689136</title>
<polygon fill="black" stroke="black" points="707.88,-513 653.88,-513 653.88,-477 707.88,-477 707.88,-513"/>
</g>
<!-- 2031265689136&#45;&gt;2031265683856 -->
<g id="edge22" class="edge">
<title>2031265689136-&gt;2031265683856</title>
<path fill="none" stroke="black" d="M708.08,-496.16C774.42,-498.98 954.4,-506 1104.5,-506 1104.5,-506 1104.5,-506 2099.25,-506 2229.75,-506 2270.47,-517.37 2390,-465 2403.14,-459.24 2415.78,-450.11 2426.43,-440.98"/>
<polygon fill="black" stroke="black" points="2428.65,-443.69 2433.74,-434.4 2423.97,-438.49 2428.65,-443.69"/>
</g>
<!-- 2031265689136guard -->
<g id="node15" class="node">
<title>2031265689136guard</title>
<polygon fill="none" stroke="black" stroke-dasharray="1,5" points="614,-513 195.25,-513 195.25,-477 614,-477 614,-513"/>
<text text-anchor="middle" x="404.62" y="-489.57" font-family="Arial Narrow,sans-serif" font-size="14.00">((dismissal!="NIL")||((points==0)&amp;&amp;(totalPaymentAmount&gt;=amount)))</text>
</g>
<!-- 2031265689136guard&#45;&gt;2031265689136 -->
<g id="edge6" class="edge">
<title>2031265689136guard-&gt;2031265689136</title>
<path fill="none" stroke="black" stroke-dasharray="1,5" d="M614.19,-495C629.28,-495 642.78,-495 653.55,-495"/>
</g>
<!-- 2031265690816 -->
<g id="node16" class="node">
<title>2031265690816</title>
<polygon fill="white" stroke="black" points="1133,-415 1078,-415 1078,-379 1133,-379 1133,-415"/>
<text text-anchor="middle" x="1105.5" y="-392.73" font-family="Arial Narrow,sans-serif" font-size="12.00">Payment</text>
</g>
<!-- 2031265683136 -->
<g id="node32" class="node">
<title>2031265683136</title>
<ellipse fill="white" stroke="black" cx="878.75" cy="-397" rx="27" ry="27"/>
</g>
<!-- 2031265690816&#45;&gt;2031265683136 -->
<g id="edge29" class="edge">
<title>2031265690816-&gt;2031265683136</title>
<path fill="none" stroke="black" d="M1077.63,-401.57C1037.6,-404.26 962.18,-404.46 916.9,-402.17"/>
<polygon fill="black" stroke="black" points="917.23,-398.68 907.04,-401.58 916.82,-405.67 917.23,-398.68"/>
</g>
<!-- 2031265691200 -->
<g id="node17" class="node">
<title>2031265691200</title>
<polygon fill="white" stroke="black" points="1608.62,-108 1553.62,-108 1553.62,-72 1608.62,-72 1608.62,-108"/>
<text text-anchor="middle" x="1581.12" y="-85.72" font-family="Arial Narrow,sans-serif" font-size="12.00">Payment</text>
</g>
<!-- 2031265691200&#45;&gt;2031265679200 -->
<g id="edge33" class="edge">
<title>2031265691200-&gt;2031265679200</title>
<path fill="none" stroke="black" d="M1553.31,-106.11C1537.46,-112.32 1517.07,-119.13 1499.25,-126 1453.86,-143.51 1402.78,-166.48 1369.42,-179.96"/>
<polygon fill="black" stroke="black" points="1368.24,-176.66 1360.23,-183.59 1370.82,-183.17 1368.24,-176.66"/>
</g>
<!-- 2031265689424 -->
<g id="node18" class="node">
<title>2031265689424</title>
<polygon fill="white" stroke="black" points="2690.75,-126 2524,-126 2524,-90 2690.75,-90 2690.75,-126"/>
<text text-anchor="middle" x="2607.38" y="-103.72" font-family="Arial Narrow,sans-serif" font-size="12.00">Notify Result Appeal to Offender</text>
</g>
<!-- 2031265689424&#45;&gt;2031265679200 -->
<g id="edge28" class="edge">
<title>2031265689424-&gt;2031265679200</title>
<path fill="none" stroke="black" d="M2523.59,-119.51C2460.93,-127.23 2372.66,-136 2294.88,-136 1929.38,-136 1929.38,-136 1929.38,-136 1826.64,-136 1798.54,-129.56 1699,-155 1682.04,-159.34 1680.02,-166.87 1663,-171 1559.55,-196.08 1432.75,-194.78 1370.86,-192.17"/>
<polygon fill="black" stroke="black" points="1371.03,-188.67 1360.88,-191.71 1370.71,-195.67 1371.03,-188.67"/>
</g>
<!-- 2031265687120 -->
<g id="node19" class="node">
<title>2031265687120</title>
<polygon fill="white" stroke="black" points="1165.25,-285 1045.75,-285 1045.75,-249 1165.25,-249 1165.25,-285"/>
<text text-anchor="middle" x="1105.5" y="-262.73" font-family="Arial Narrow,sans-serif" font-size="12.00">Insert Fine Notification</text>
</g>
<!-- 2031265687120&#45;&gt;2031265679200 -->
<g id="edge15" class="edge">
<title>2031265687120-&gt;2031265679200</title>
<path fill="none" stroke="black" d="M1160.33,-248.56C1202.23,-234.2 1259.19,-214.69 1295.6,-202.22"/>
<polygon fill="black" stroke="black" points="1296.44,-205.63 1304.76,-199.07 1294.17,-199.01 1296.44,-205.63"/>
</g>
<!-- 2031265687504 -->
<g id="node20" class="node">
<title>2031265687504</title>
<polygon fill="black" stroke="black" points="1957.38,-364 1903.38,-364 1903.38,-328 1957.38,-328 1957.38,-364"/>
</g>
<!-- 2031265687504&#45;&gt;2031265683856 -->
<g id="edge19" class="edge">
<title>2031265687504-&gt;2031265683856</title>
<path fill="none" stroke="black" d="M1957.83,-344.28C2029.13,-340.41 2230.62,-334.46 2390,-378 2400.06,-380.75 2410.39,-385.08 2419.8,-389.72"/>
<polygon fill="black" stroke="black" points="2418.15,-392.8 2428.64,-394.31 2421.38,-386.59 2418.15,-392.8"/>
</g>
<!-- 2031265687504guard -->
<g id="node21" class="node">
<title>2031265687504guard</title>
<polygon fill="none" stroke="black" stroke-dasharray="1,5" points="1818.5,-364 1706.5,-364 1706.5,-328 1818.5,-328 1818.5,-364"/>
<text text-anchor="middle" x="1762.5" y="-340.57" font-family="Arial Narrow,sans-serif" font-size="14.00">(dismissal=="#")</text>
</g>
<!-- 2031265687504guard&#45;&gt;2031265687504 -->
<g id="edge7" class="edge">
<title>2031265687504guard-&gt;2031265687504</title>
<path fill="none" stroke="black" stroke-dasharray="1,5" d="M1818.73,-346C1847.2,-346 1880.58,-346 1903.17,-346"/>
</g>
<!-- 2031265689040 -->
<g id="node22" class="node">
<title>2031265689040</title>
<polygon fill="white" stroke="black" points="1648.75,-432 1513.5,-432 1513.5,-396 1648.75,-396 1648.75,-432"/>
<text text-anchor="middle" x="1581.12" y="-409.73" font-family="Arial Narrow,sans-serif" font-size="12.00">Send for Credit Collection</text>
</g>
<!-- 2031265689040&#45;&gt;2031265683856 -->
<g id="edge21" class="edge">
<title>2031265689040-&gt;2031265683856</title>
<path fill="none" stroke="black" d="M1648.98,-418.91C1718.87,-423.61 1831.76,-430 1929.38,-430 1929.38,-430 1929.38,-430 2099.25,-430 2213.64,-430 2348.37,-420.14 2414.76,-414.63"/>
<polygon fill="black" stroke="black" points="2414.78,-418.14 2424.45,-413.81 2414.19,-411.16 2414.78,-418.14"/>
</g>
<!-- 2031265689040guard -->
<g id="node23" class="node">
<title>2031265689040guard</title>
<polygon fill="none" stroke="black" stroke-dasharray="1,5" points="1459.12,-432 1205.38,-432 1205.38,-396 1459.12,-396 1459.12,-432"/>
<text text-anchor="middle" x="1332.25" y="-408.57" font-family="Arial Narrow,sans-serif" font-size="14.00">(totalPaymentAmount&lt;(amount+expense))</text>
</g>
<!-- 2031265689040guard&#45;&gt;2031265689040 -->
<g id="edge8" class="edge">
<title>2031265689040guard-&gt;2031265689040</title>
<path fill="none" stroke="black" stroke-dasharray="1,5" d="M1459.58,-414C1478.09,-414 1496.51,-414 1513.17,-414"/>
</g>
<!-- 2031265691104 -->
<g id="node24" class="node">
<title>2031265691104</title>
<polygon fill="white" stroke="black" points="708.38,-373 653.38,-373 653.38,-337 708.38,-337 708.38,-373"/>
<text text-anchor="middle" x="680.88" y="-350.73" font-family="Arial Narrow,sans-serif" font-size="12.00">Payment</text>
</g>
<!-- 2031265691104&#45;&gt;2031265686832 -->
<g id="edge32" class="edge">
<title>2031265691104-&gt;2031265686832</title>
<path fill="none" stroke="black" d="M653.14,-359.21C603.87,-362.39 498.68,-362.58 442.61,-359.79"/>
<polygon fill="black" stroke="black" points="443.12,-356.31 432.94,-359.23 442.72,-363.3 443.12,-356.31"/>
</g>
<!-- 2031265689328 -->
<g id="node25" class="node">
<title>2031265689328</title>
<polygon fill="white" stroke="black" points="2390,-99 2197.75,-99 2197.75,-63 2390,-63 2390,-99"/>
<text text-anchor="middle" x="2293.88" y="-76.72" font-family="Arial Narrow,sans-serif" font-size="12.00">Receive Result Appeal from Prefecture</text>
</g>
<!-- 2031265686736 -->
<g id="node37" class="node">
<title>2031265686736</title>
<ellipse fill="white" stroke="black" cx="2457" cy="-81" rx="27" ry="27"/>
</g>
<!-- 2031265689328&#45;&gt;2031265686736 -->
<g id="edge27" class="edge">
<title>2031265689328-&gt;2031265686736</title>
<path fill="none" stroke="black" d="M2390.46,-81C2400.23,-81 2409.69,-81 2418.24,-81"/>
<polygon fill="black" stroke="black" points="2418.15,-84.5 2428.15,-81 2418.15,-77.5 2418.15,-84.5"/>
</g>
<!-- 2031265689328guard -->
<g id="node26" class="node">
<title>2031265689328guard</title>
<polygon fill="none" stroke="black" stroke-dasharray="1,5" points="2161.75,-36 2034.75,-36 2034.75,0 2161.75,0 2161.75,-36"/>
<text text-anchor="middle" x="2098.25" y="-12.57" font-family="Arial Narrow,sans-serif" font-size="14.00">(dismissal=="NIL")</text>
</g>
<!-- 2031265689328guard&#45;&gt;2031265689328 -->
<g id="edge9" class="edge">
<title>2031265689328guard-&gt;2031265689328</title>
<path fill="none" stroke="black" stroke-dasharray="1,5" d="M2156.04,-36.48C2181.25,-44.68 2210.87,-54.32 2236.09,-62.52"/>
</g>
<!-- 2031265687024 -->
<g id="node27" class="node">
<title>2031265687024</title>
<polygon fill="white" stroke="black" points="711.75,-427 650,-427 650,-391 711.75,-391 711.75,-427"/>
<text text-anchor="middle" x="680.88" y="-404.73" font-family="Arial Narrow,sans-serif" font-size="12.00">Send Fine</text>
</g>
<!-- 2031265687024&#45;&gt;2031265683136 -->
<g id="edge14" class="edge">
<title>2031265687024-&gt;2031265683136</title>
<path fill="none" stroke="black" d="M712.05,-407.15C746.43,-405.05 802.65,-401.6 839.93,-399.32"/>
<polygon fill="black" stroke="black" points="840.03,-402.82 849.8,-398.71 839.6,-395.83 840.03,-402.82"/>
</g>
<!-- 2031265687024guard -->
<g id="node28" class="node">
<title>2031265687024guard</title>
<polygon fill="none" stroke="black" stroke-dasharray="1,5" points="465.12,-436 344.12,-436 344.12,-400 465.12,-400 465.12,-436"/>
<text text-anchor="middle" x="404.62" y="-412.57" font-family="Arial Narrow,sans-serif" font-size="14.00">(delaySend'&lt;2160)</text>
</g>
<!-- 2031265687024guard&#45;&gt;2031265687024 -->
<g id="edge10" class="edge">
<title>2031265687024guard-&gt;2031265687024</title>
<path fill="none" stroke="black" stroke-dasharray="1,5" d="M465.47,-416.04C522.37,-414.17 605.62,-411.44 649.78,-409.99"/>
</g>
<!-- 2031265687408 -->
<g id="node29" class="node">
<title>2031265687408</title>
<polygon fill="black" stroke="black" points="1957.38,-246 1903.38,-246 1903.38,-210 1957.38,-210 1957.38,-246"/>
</g>
<!-- 2031265687408&#45;&gt;2031265679200 -->
<g id="edge18" class="edge">
<title>2031265687408-&gt;2031265679200</title>
<path fill="none" stroke="black" d="M1903.17,-226.8C1836.01,-223.66 1652.2,-214.71 1499.25,-204 1454.99,-200.9 1404.16,-196.49 1370.53,-193.45"/>
<polygon fill="black" stroke="black" points="1371.18,-189.99 1360.9,-192.57 1370.54,-196.96 1371.18,-189.99"/>
</g>
<!-- 2031265687408guard -->
<g id="node30" class="node">
<title>2031265687408guard</title>
<polygon fill="none" stroke="black" stroke-dasharray="1,5" points="1826,-200 1699,-200 1699,-164 1826,-164 1826,-200"/>
<text text-anchor="middle" x="1762.5" y="-176.57" font-family="Arial Narrow,sans-serif" font-size="14.00">(dismissal=="NIL")</text>
</g>
<!-- 2031265687408guard&#45;&gt;2031265687408 -->
<g id="edge11" class="edge">
<title>2031265687408guard-&gt;2031265687408</title>
<path fill="none" stroke="black" stroke-dasharray="1,5" d="M1826.21,-199.39C1852.82,-206.77 1882.38,-214.97 1903.01,-220.69"/>
</g>
<!-- 2031265679632 -->
<g id="node31" class="node">
<title>2031265679632</title>
<ellipse fill="white" stroke="black" cx="27" cy="-355" rx="27" ry="27"/>
<circle fill="black" cx="27" cy="-355" r="17.0"/></g>
<!-- 2031265679632&#45;&gt;2031265686928 -->
<g id="edge12" class="edge">
<title>2031265679632-&gt;2031265686928</title>
<path fill="none" stroke="black" d="M54.38,-355C61.82,-355 70.14,-355 78.35,-355"/>
<polygon fill="black" stroke="black" points="78.28,-358.5 88.28,-355 78.28,-351.5 78.28,-358.5"/>
</g>
<!-- 2031265683136&#45;&gt;2031265691008 -->
<g id="edge25" class="edge">
<title>2031265683136-&gt;2031265691008</title>
<path fill="none" stroke="black" d="M905.17,-403.98C931.39,-411.19 973.45,-422.8 1009.75,-433 1028.8,-438.35 1049.97,-444.38 1067.47,-449.38"/>
<polygon fill="black" stroke="black" points="1066.34,-452.7 1076.92,-452.08 1068.27,-445.97 1066.34,-452.7"/>
</g>
<!-- 2031265683136&#45;&gt;2031265690816 -->
<g id="edge24" class="edge">
<title>2031265683136-&gt;2031265690816</title>
<path fill="none" stroke="black" d="M905.53,-392.51C944.99,-389.76 1020.59,-389.52 1066.39,-391.78"/>
<polygon fill="black" stroke="black" points="1065.93,-395.26 1076.12,-392.34 1066.33,-388.27 1065.93,-395.26"/>
</g>
<!-- 2031265683136&#45;&gt;2031265687120 -->
<g id="edge23" class="edge">
<title>2031265683136-&gt;2031265687120</title>
<path fill="none" stroke="black" d="M902.54,-383.82C940.07,-362.11 1015.44,-318.51 1062.74,-291.15"/>
<polygon fill="black" stroke="black" points="1064.46,-294.2 1071.36,-286.17 1060.96,-288.14 1064.46,-294.2"/>
</g>
<!-- 2031265679200&#45;&gt;2031265687312 -->
<g id="edge36" class="edge">
<title>2031265679200-&gt;2031265687312</title>
<path fill="none" stroke="black" d="M1358.53,-197.31C1386.54,-206.37 1431.89,-224 1463.25,-251 1485.11,-269.82 1478.24,-285.24 1499.25,-305 1512.23,-317.2 1528.93,-327.58 1543.79,-335.45"/>
<polygon fill="black" stroke="black" points="1541.86,-338.39 1552.36,-339.81 1545.03,-332.15 1541.86,-338.39"/>
</g>
<!-- 2031265679200&#45;&gt;2031265690912 -->
<g id="edge39" class="edge">
<title>2031265679200-&gt;2031265690912</title>
<path fill="none" stroke="black" d="M1357.82,-181.18C1398.76,-170.66 1481.55,-154.84 1533.73,-147.24"/>
<polygon fill="black" stroke="black" points="1534.09,-150.72 1543.51,-145.87 1533.12,-143.79 1534.09,-150.72"/>
</g>
<!-- 2031265679200&#45;&gt;2031265687216 -->
<g id="edge35" class="edge">
<title>2031265679200-&gt;2031265687216</title>
<path fill="none" stroke="black" d="M1352.22,-172.06C1381.62,-145.08 1440.91,-93.94 1499.25,-63 1501.92,-61.59 1504.67,-60.23 1507.48,-58.92"/>
<polygon fill="black" stroke="black" points="1508.68,-62.21 1516.47,-55.03 1505.9,-55.79 1508.68,-62.21"/>
</g>
<!-- 2031265679200&#45;&gt;2031265687600 -->
<g id="edge37" class="edge">
<title>2031265679200-&gt;2031265687600</title>
<path fill="none" stroke="black" d="M1357.82,-198.76C1396.54,-212.56 1472.69,-239.7 1524.98,-258.34"/>
<polygon fill="black" stroke="black" points="1523.74,-261.62 1534.33,-261.68 1526.09,-255.02 1523.74,-261.62"/>
</g>
<!-- 2031265679200&#45;&gt;2031265691200 -->
<g id="edge40" class="edge">
<title>2031265679200-&gt;2031265691200</title>
<path fill="none" stroke="black" d="M1354.48,-174.04C1385.79,-156.2 1446.38,-128.4 1499.25,-108 1513.17,-102.63 1528.66,-97.3 1542.33,-93.37"/>
<polygon fill="black" stroke="black" points="1543.1,-96.78 1551.85,-90.81 1541.29,-90.02 1543.1,-96.78"/>
</g>
<!-- 2031265679200&#45;&gt;2031265689040 -->
<g id="edge38" class="edge">
<title>2031265679200-&gt;2031265689040</title>
<path fill="none" stroke="black" d="M1359.17,-195.34C1388.64,-202.76 1436.17,-219.05 1463.25,-251 1501.46,-296.08 1460.36,-334.5 1499.25,-379 1502.63,-382.86 1506.51,-386.31 1510.7,-389.4"/>
<polygon fill="black" stroke="black" points="1508.72,-392.29 1519.03,-394.75 1512.51,-386.4 1508.72,-392.29"/>
</g>
<!-- 2031265683616&#45;&gt;2031265687504 -->
<g id="edge42" class="edge">
<title>2031265683616-&gt;2031265687504</title>
<path fill="none" stroke="black" d="M1787.98,-292.3C1815.46,-302.74 1860.39,-319.8 1892.22,-331.89"/>
<polygon fill="black" stroke="black" points="1890.87,-335.12 1901.46,-335.4 1893.36,-328.58 1890.87,-335.12"/>
</g>
<!-- 2031265683616&#45;&gt;2031265687408 -->
<g id="edge41" class="edge">
<title>2031265683616-&gt;2031265687408</title>
<path fill="none" stroke="black" d="M1788.69,-274.65C1816.34,-265.48 1860.98,-250.68 1892.55,-240.21"/>
<polygon fill="black" stroke="black" points="1893.29,-243.65 1901.69,-237.18 1891.09,-237.01 1893.29,-243.65"/>
</g>
<!-- 2031265680016&#45;&gt;2031265689232 -->
<g id="edge43" class="edge">
<title>2031265680016-&gt;2031265689232</title>
<path fill="none" stroke="black" d="M1789.42,-50.44C1806.02,-52.64 1828.53,-55.63 1850.64,-58.56"/>
<polygon fill="black" stroke="black" points="1849.91,-61.99 1860.29,-59.84 1850.83,-55.05 1849.91,-61.99"/>
</g>
<!-- 2031265686208&#45;&gt;2031265691296 -->
<g id="edge45" class="edge">
<title>2031265686208-&gt;2031265691296</title>
<path fill="none" stroke="black" d="M2119.61,-97.82C2153.56,-125.88 2221.98,-182.42 2261.94,-215.43"/>
<polygon fill="black" stroke="black" points="2259.62,-218.06 2269.56,-221.73 2264.08,-212.66 2259.62,-218.06"/>
</g>
<!-- 2031265686208&#45;&gt;2031265689328 -->
<g id="edge44" class="edge">
<title>2031265686208-&gt;2031265689328</title>
<path fill="none" stroke="black" d="M2125.36,-81C2141.6,-81 2163.66,-81 2186.44,-81"/>
<polygon fill="black" stroke="black" points="2186.15,-84.5 2196.15,-81 2186.15,-77.5 2186.15,-84.5"/>
</g>
<!-- 2031265686736&#45;&gt;2031265689424 -->
<g id="edge46" class="edge">
<title>2031265686736-&gt;2031265689424</title>
<path fill="none" stroke="black" d="M2483.84,-85.7C2492.29,-87.24 2502.21,-89.04 2512.69,-90.95"/>
<polygon fill="black" stroke="black" points="2511.82,-94.35 2522.29,-92.7 2513.07,-87.46 2511.82,-94.35"/>
</g>
<!-- 2031265686832&#45;&gt;2031265689136 -->
<g id="edge48" class="edge">
<title>2031265686832-&gt;2031265689136</title>
<path fill="none" stroke="black" d="M431.78,-353.07C473.85,-351.28 557.51,-353.29 614,-391 628.34,-400.58 650.78,-439.41 665.41,-466.81"/>
<polygon fill="black" stroke="black" points="662.14,-468.1 669.89,-475.32 668.33,-464.84 662.14,-468.1"/>
</g>
<!-- 2031265686832&#45;&gt;2031265691104 -->
<g id="edge49" class="edge">
<title>2031265686832-&gt;2031265691104</title>
<path fill="none" stroke="black" d="M431.43,-350.85C479.98,-347.63 585.12,-347.4 641.81,-350.16"/>
<polygon fill="black" stroke="black" points="641.44,-353.64 651.62,-350.71 641.84,-346.65 641.44,-353.64"/>
</g>
<!-- 2031265686832&#45;&gt;2031265687024 -->
<g id="edge47" class="edge">
<title>2031265686832-&gt;2031265687024</title>
<path fill="none" stroke="black" d="M431.77,-358.7C471.4,-364.48 548.96,-376.53 614,-391 621.94,-392.77 630.37,-394.88 638.44,-397.03"/>
<polygon fill="black" stroke="black" points="637.5,-400.4 648.07,-399.66 639.34,-393.65 637.5,-400.4"/>
</g>
</g>
</svg>
