<svg width="254" height="254" xmlns="http://www.w3.org/2000/svg" xmlns:xlink="http://www.w3.org/1999/xlink" xml:space="preserve" overflow="hidden"><g transform="translate(-592 -154)"><path d="M644.917 191.042 629.042 191.042 629.042 370.958 808.958 370.958 808.958 355.083 644.917 355.083 644.917 191.042Z" fill="#0B76A0"/><path d="M806.987 319.833C797.761 320.161 773.144 321.039 768.093 271.023 763.979 230.107 753.422 212.65 732.838 212.65 712.253 212.65 701.709 230.107 697.569 271.023 692.542 321.039 667.935 320.132 658.688 319.833 657.918 319.804 657.257 319.783 656.717 319.783L656.717 335.658C657.101 335.658 657.574 335.676 658.125 335.697 658.955 335.726 659.776 335.74 660.591 335.74 691.388 335.74 709.144 314.517 713.375 272.618 717.825 228.525 728.721 228.525 732.838 228.525 736.955 228.525 747.85 228.525 752.3 272.618 756.645 315.626 775.203 336.75 807.553 335.697 808.101 335.676 808.572 335.658 808.958 335.658L808.958 319.783C808.429 319.783 807.757 319.804 806.987 319.833Z" fill="#0B76A0"/><path d="M730.192 268.213 735.484 268.213 735.484 281.442 730.192 281.442Z" fill="#0B76A0"/><path d="M730.192 292.025 735.484 292.025 735.484 305.254 730.192 305.254Z" fill="#0B76A0"/><path d="M730.192 245.284 735.484 245.284 735.484 258.513 730.192 258.513Z" fill="#0B76A0"/><path d="M730.192 315.838 735.484 315.838 735.484 328.625 730.192 328.625Z" fill="#0B76A0"/></g></svg>